<svg xmlns="http://www.w3.org/2000/svg" viewBox="0 0 900 500" aria-label="COLEwebdev.org AI SEO and Speed Audit features diagram showing analytics data flowing into AI analysis">
  <defs>
    <linearGradient id="bgGrad" x1="0%" y1="0%" x2="100%" y2="100%">
      <stop offset="0%" style="stop-color:#0a0b0f;stop-opacity:1"/>
      <stop offset="100%" style="stop-color:#1a1d29;stop-opacity:1"/>
    </linearGradient>
    <linearGradient id="primaryGrad" x1="0%" y1="0%" x2="100%" y2="100%">
      <stop offset="0%" style="stop-color:#00d4ff;stop-opacity:1"/>
      <stop offset="100%" style="stop-color:#7c3aed;stop-opacity:1"/>
    </linearGradient>
    <linearGradient id="orangeGrad" x1="0%" y1="0%" x2="100%" y2="100%">
      <stop offset="0%" style="stop-color:#f59e0b;stop-opacity:1"/>
      <stop offset="100%" style="stop-color:#ff6b35;stop-opacity:1"/>
    </linearGradient>
    <linearGradient id="greenGrad" x1="0%" y1="0%" x2="100%" y2="100%">
      <stop offset="0%" style="stop-color:#10b981;stop-opacity:1"/>
      <stop offset="100%" style="stop-color:#00d4ff;stop-opacity:1"/>
    </linearGradient>
    <filter id="glow">
      <feGaussianBlur stdDeviation="3" result="coloredBlur"/>
      <feMerge><feMergeNode in="coloredBlur"/><feMergeNode in="SourceGraphic"/></feMerge>
    </filter>
    <filter id="softGlow">
      <feGaussianBlur stdDeviation="8" result="coloredBlur"/>
      <feMerge><feMergeNode in="coloredBlur"/><feMergeNode in="SourceGraphic"/></feMerge>
    </filter>
  </defs>

  <!-- Background -->
  <rect width="900" height="500" fill="url(#bgGrad)"/>

  <!-- Subtle grid -->
  <g opacity="0.04" stroke="#00d4ff" stroke-width="1">
    <line x1="0" y1="50" x2="900" y2="50"/>
    <line x1="0" y1="100" x2="900" y2="100"/>
    <line x1="0" y1="150" x2="900" y2="150"/>
    <line x1="0" y1="200" x2="900" y2="200"/>
    <line x1="0" y1="250" x2="900" y2="250"/>
    <line x1="0" y1="300" x2="900" y2="300"/>
    <line x1="0" y1="350" x2="900" y2="350"/>
    <line x1="0" y1="400" x2="900" y2="400"/>
    <line x1="0" y1="450" x2="900" y2="450"/>
    <line x1="50" y1="0" x2="50" y2="500"/>
    <line x1="150" y1="0" x2="150" y2="500"/>
    <line x1="250" y1="0" x2="250" y2="500"/>
    <line x1="350" y1="0" x2="350" y2="500"/>
    <line x1="450" y1="0" x2="450" y2="500"/>
    <line x1="550" y1="0" x2="550" y2="500"/>
    <line x1="650" y1="0" x2="650" y2="500"/>
    <line x1="750" y1="0" x2="750" y2="500"/>
    <line x1="850" y1="0" x2="850" y2="500"/>
  </g>

  <!-- Background glows -->
  <ellipse cx="450" cy="250" rx="300" ry="180" fill="#7c3aed" opacity="0.06"/>
  <ellipse cx="200" cy="150" rx="150" ry="100" fill="#00d4ff" opacity="0.05"/>
  <ellipse cx="720" cy="350" rx="160" ry="100" fill="#10b981" opacity="0.05"/>

  <!-- ===== LEFT CARD: Data Sources ===== -->
  <rect x="30" y="80" width="200" height="340" rx="16" fill="rgba(26,29,41,0.9)" stroke="#00d4ff" stroke-width="1" opacity="0.9"/>
  <text x="130" y="110" font-family="Inter,sans-serif" font-size="13" font-weight="600" fill="#00d4ff" text-anchor="middle">DATA SOURCES</text>

  <!-- GA Card -->
  <rect x="50" y="125" width="160" height="60" rx="8" fill="rgba(0,212,255,0.08)" stroke="rgba(0,212,255,0.3)" stroke-width="1"/>
  <text x="70" y="148" font-family="Inter,sans-serif" font-size="11" font-weight="700" fill="#f59e0b">GA</text>
  <text x="90" y="148" font-family="Inter,sans-serif" font-size="11" fill="#94a3b8">Google Analytics</text>
  <!-- Bar chart mini -->
  <rect x="56" y="160" width="8" height="14" rx="2" fill="#f59e0b" opacity="0.7"/>
  <rect x="68" y="155" width="8" height="19" rx="2" fill="#f59e0b" opacity="0.85"/>
  <rect x="80" y="158" width="8" height="16" rx="2" fill="#f59e0b" opacity="0.7"/>
  <rect x="92" y="152" width="8" height="22" rx="2" fill="#f59e0b"/>
  <rect x="104" y="157" width="8" height="17" rx="2" fill="#f59e0b" opacity="0.8"/>
  <rect x="116" y="163" width="8" height="11" rx="2" fill="#f59e0b" opacity="0.6"/>
  <text x="134" y="172" font-family="Inter,sans-serif" font-size="9" fill="#64748b">sessions · users</text>

  <!-- GSC Card -->
  <rect x="50" y="200" width="160" height="60" rx="8" fill="rgba(124,58,237,0.08)" stroke="rgba(124,58,237,0.3)" stroke-width="1"/>
  <text x="70" y="223" font-family="Inter,sans-serif" font-size="11" font-weight="700" fill="#a78bfa">GSC</text>
  <text x="93" y="223" font-family="Inter,sans-serif" font-size="11" fill="#94a3b8">Search Console</text>
  <!-- Search trend line -->
  <polyline points="56,248 68,240 80,244 92,236 104,238 116,232 128,235 140,229" fill="none" stroke="#a78bfa" stroke-width="2" stroke-linecap="round"/>
  <text x="148" y="248" font-family="Inter,sans-serif" font-size="9" fill="#64748b">CTR · rank</text>

  <!-- PageSpeed Card -->
  <rect x="50" y="275" width="160" height="60" rx="8" fill="rgba(16,185,129,0.08)" stroke="rgba(16,185,129,0.3)" stroke-width="1"/>
  <text x="70" y="298" font-family="Inter,sans-serif" font-size="11" font-weight="700" fill="#10b981">PS</text>
  <text x="88" y="298" font-family="Inter,sans-serif" font-size="11" fill="#94a3b8">PageSpeed API</text>
  <!-- Gauge visual -->
  <path d="M 70 330 A 22 22 0 0 1 114 330" fill="none" stroke="rgba(16,185,129,0.2)" stroke-width="6" stroke-linecap="round"/>
  <path d="M 70 330 A 22 22 0 0 1 106 313" fill="none" stroke="#10b981" stroke-width="6" stroke-linecap="round"/>
  <circle cx="92" cy="325" r="4" fill="#10b981"/>
  <text x="126" y="324" font-family="Inter,sans-serif" font-size="11" font-weight="700" fill="#10b981">87</text>
  <text x="126" y="334" font-family="Inter,sans-serif" font-size="8" fill="#64748b">performance</text>

  <!-- Site Crawl Card -->
  <rect x="50" y="350" width="160" height="50" rx="8" fill="rgba(245,158,11,0.08)" stroke="rgba(245,158,11,0.3)" stroke-width="1"/>
  <text x="70" y="373" font-family="Inter,sans-serif" font-size="11" fill="#94a3b8">Site Structure</text>
  <text x="70" y="390" font-family="Inter,sans-serif" font-size="9" fill="#f59e0b">headings · meta · links · schema</text>

  <!-- ===== FLOW ARROWS LEFT → CENTER ===== -->
  <line x1="232" y1="155" x2="315" y2="200" stroke="url(#primaryGrad)" stroke-width="1.5" stroke-dasharray="5,3" opacity="0.7"/>
  <line x1="232" y1="230" x2="315" y2="240" stroke="url(#primaryGrad)" stroke-width="1.5" stroke-dasharray="5,3" opacity="0.7"/>
  <line x1="232" y1="305" x2="315" y2="280" stroke="url(#greenGrad)" stroke-width="1.5" stroke-dasharray="5,3" opacity="0.7"/>
  <line x1="232" y1="375" x2="315" y2="320" stroke="url(#orangeGrad)" stroke-width="1.5" stroke-dasharray="5,3" opacity="0.7"/>
  <!-- Arrow heads -->
  <polygon points="315,200 308,194 308,206" fill="#00d4ff" opacity="0.7"/>
  <polygon points="315,240 308,234 308,246" fill="#7c3aed" opacity="0.7"/>
  <polygon points="315,280 308,274 308,286" fill="#10b981" opacity="0.7"/>
  <polygon points="315,320 308,314 308,326" fill="#f59e0b" opacity="0.7"/>

  <!-- ===== CENTER: AI Brain ===== -->
  <rect x="315" y="130" width="270" height="240" rx="20" fill="rgba(26,29,41,0.95)" stroke="url(#primaryGrad)" stroke-width="2"/>
  <!-- Pulsing glow -->
  <rect x="315" y="130" width="270" height="240" rx="20" fill="none" stroke="#00d4ff" stroke-width="1" opacity="0.3"/>

  <text x="450" y="165" font-family="Inter,sans-serif" font-size="14" font-weight="700" fill="url(#primaryGrad)" text-anchor="middle" filter="url(#glow)">AI ANALYSIS ENGINE</text>

  <!-- Neural network nodes -->
  <!-- Input layer -->
  <circle cx="355" cy="210" r="10" fill="rgba(0,212,255,0.15)" stroke="#00d4ff" stroke-width="1.5" filter="url(#glow)"/>
  <circle cx="355" cy="240" r="10" fill="rgba(0,212,255,0.15)" stroke="#00d4ff" stroke-width="1.5" filter="url(#glow)"/>
  <circle cx="355" cy="270" r="10" fill="rgba(0,212,255,0.15)" stroke="#00d4ff" stroke-width="1.5" filter="url(#glow)"/>
  <circle cx="355" cy="300" r="10" fill="rgba(0,212,255,0.15)" stroke="#00d4ff" stroke-width="1.5" filter="url(#glow)"/>

  <!-- Hidden layer 1 -->
  <circle cx="410" cy="200" r="12" fill="rgba(124,58,237,0.2)" stroke="#7c3aed" stroke-width="1.5"/>
  <circle cx="410" cy="240" r="12" fill="rgba(124,58,237,0.2)" stroke="#7c3aed" stroke-width="1.5"/>
  <circle cx="410" cy="280" r="12" fill="rgba(124,58,237,0.2)" stroke="#7c3aed" stroke-width="1.5"/>
  <circle cx="410" cy="320" r="12" fill="rgba(124,58,237,0.2)" stroke="#7c3aed" stroke-width="1.5"/>

  <!-- Hidden layer 2 -->
  <circle cx="470" cy="215" r="14" fill="rgba(0,212,255,0.15)" stroke="#00d4ff" stroke-width="2" filter="url(#glow)"/>
  <circle cx="470" cy="260" r="14" fill="rgba(0,212,255,0.15)" stroke="#00d4ff" stroke-width="2" filter="url(#glow)"/>
  <circle cx="470" cy="305" r="14" fill="rgba(0,212,255,0.15)" stroke="#00d4ff" stroke-width="2" filter="url(#glow)"/>

  <!-- Output layer -->
  <circle cx="535" cy="230" r="12" fill="rgba(245,158,11,0.2)" stroke="#f59e0b" stroke-width="1.5"/>
  <circle cx="535" cy="275" r="12" fill="rgba(16,185,129,0.2)" stroke="#10b981" stroke-width="1.5"/>
  <circle cx="535" cy="320" r="12" fill="rgba(124,58,237,0.2)" stroke="#a78bfa" stroke-width="1.5"/>

  <!-- Connections (simplified) -->
  <g stroke="#00d4ff" stroke-width="0.6" opacity="0.2">
    <line x1="365" y1="210" x2="398" y2="200"/><line x1="365" y1="210" x2="398" y2="240"/><line x1="365" y1="210" x2="398" y2="280"/>
    <line x1="365" y1="240" x2="398" y2="200"/><line x1="365" y1="240" x2="398" y2="240"/><line x1="365" y1="240" x2="398" y2="280"/><line x1="365" y1="240" x2="398" y2="320"/>
    <line x1="365" y1="270" x2="398" y2="240"/><line x1="365" y1="270" x2="398" y2="280"/><line x1="365" y1="270" x2="398" y2="320"/>
    <line x1="365" y1="300" x2="398" y2="280"/><line x1="365" y1="300" x2="398" y2="320"/>
    <line x1="422" y1="200" x2="456" y2="215"/><line x1="422" y1="200" x2="456" y2="260"/>
    <line x1="422" y1="240" x2="456" y2="215"/><line x1="422" y1="240" x2="456" y2="260"/><line x1="422" y1="240" x2="456" y2="305"/>
    <line x1="422" y1="280" x2="456" y2="260"/><line x1="422" y1="280" x2="456" y2="305"/>
    <line x1="422" y1="320" x2="456" y2="260"/><line x1="422" y1="320" x2="456" y2="305"/>
    <line x1="484" y1="215" x2="523" y2="230"/><line x1="484" y1="215" x2="523" y2="275"/>
    <line x1="484" y1="260" x2="523" y2="230"/><line x1="484" y1="260" x2="523" y2="275"/><line x1="484" y1="260" x2="523" y2="320"/>
    <line x1="484" y1="305" x2="523" y2="275"/><line x1="484" y1="305" x2="523" y2="320"/>
  </g>

  <!-- Active connections (highlighted) -->
  <g opacity="0.5">
    <line x1="365" y1="240" x2="398" y2="240" stroke="#00d4ff" stroke-width="1.5"/>
    <line x1="422" y1="240" x2="456" y2="260" stroke="#7c3aed" stroke-width="1.5"/>
    <line x1="484" y1="260" x2="523" y2="275" stroke="#10b981" stroke-width="1.5"/>
  </g>

  <!-- Label under engine -->
  <text x="450" y="360" font-family="Inter,sans-serif" font-size="10" fill="#64748b" text-anchor="middle">Claude AI · pattern matching · priority ranking</text>

  <!-- ===== FLOW ARROWS CENTER → RIGHT ===== -->
  <line x1="587" y1="230" x2="658" y2="195" stroke="url(#orangeGrad)" stroke-width="1.5" stroke-dasharray="5,3" opacity="0.8"/>
  <line x1="587" y1="275" x2="658" y2="290" stroke="url(#greenGrad)" stroke-width="1.5" stroke-dasharray="5,3" opacity="0.8"/>
  <polygon points="658,195 651,189 651,201" fill="#f59e0b" opacity="0.8"/>
  <polygon points="658,290 651,284 651,296" fill="#10b981" opacity="0.8"/>

  <!-- ===== RIGHT CARDS: Outputs ===== -->

  <!-- SEO Audit Output -->
  <rect x="660" y="80" width="210" height="165" rx="16" fill="rgba(26,29,41,0.9)" stroke="rgba(245,158,11,0.5)" stroke-width="1.5"/>
  <rect x="660" y="80" width="210" height="40" rx="16" fill="rgba(245,158,11,0.1)"/>
  <rect x="660" y="100" width="210" height="20" fill="rgba(245,158,11,0.1)"/>
  <text x="765" y="106" font-family="Inter,sans-serif" font-size="12" font-weight="700" fill="#f59e0b" text-anchor="middle">AI SEO AUDIT</text>

  <text x="680" y="135" font-family="Inter,sans-serif" font-size="10" fill="#94a3b8">✓ Keyword gap analysis</text>
  <text x="680" y="153" font-family="Inter,sans-serif" font-size="10" fill="#94a3b8">✓ Content decay detection</text>
  <text x="680" y="171" font-family="Inter,sans-serif" font-size="10" fill="#94a3b8">✓ CTR improvement flags</text>
  <text x="680" y="189" font-family="Inter,sans-serif" font-size="10" fill="#94a3b8">✓ Title &amp; meta rewrites</text>
  <text x="680" y="207" font-family="Inter,sans-serif" font-size="10" fill="#94a3b8">✓ Schema markup audit</text>
  <text x="680" y="225" font-family="Inter,sans-serif" font-size="10" fill="#64748b">Powered by live GA + GSC data</text>

  <!-- Speed Audit Output -->
  <rect x="660" y="260" width="210" height="160" rx="16" fill="rgba(26,29,41,0.9)" stroke="rgba(16,185,129,0.5)" stroke-width="1.5"/>
  <rect x="660" y="260" width="210" height="40" rx="16" fill="rgba(16,185,129,0.1)"/>
  <rect x="660" y="280" width="210" height="20" fill="rgba(16,185,129,0.1)"/>
  <text x="765" y="286" font-family="Inter,sans-serif" font-size="12" font-weight="700" fill="#10b981" text-anchor="middle">AI SPEED AUDIT</text>

  <text x="680" y="315" font-family="Inter,sans-serif" font-size="10" fill="#94a3b8">✓ Core Web Vitals review</text>
  <text x="680" y="333" font-family="Inter,sans-serif" font-size="10" fill="#94a3b8">✓ Resource load analysis</text>
  <text x="680" y="351" font-family="Inter,sans-serif" font-size="10" fill="#94a3b8">✓ Render-blocking fixes</text>
  <text x="680" y="369" font-family="Inter,sans-serif" font-size="10" fill="#94a3b8">✓ Image optimization plan</text>
  <text x="680" y="399" font-family="Inter,sans-serif" font-size="10" fill="#64748b">WordPress + e-commerce + custom</text>

  <!-- ===== TITLE ===== -->
  <text x="450" y="44" font-family="Inter,sans-serif" font-size="22" font-weight="700" fill="#ffffff" text-anchor="middle" filter="url(#softGlow)">COLEwebdev.org</text>
  <text x="450" y="66" font-family="Inter,sans-serif" font-size="13" fill="#94a3b8" text-anchor="middle">AI-Powered SEO &amp; Speed Audits · No-Build React · August 2026</text>

  <!-- Bottom branding -->
  <text x="450" y="486" font-family="Inter,sans-serif" font-size="10" fill="#334155" text-anchor="middle">josefresco.com</text>
</svg>
