<svg xmlns="http://www.w3.org/2000/svg" viewBox="0 0 800 450">
  <defs>
    <linearGradient id="bg" x1="0%" y1="0%" x2="100%" y2="100%">
      <stop offset="0%" stop-color="#0a0b0f"/>
      <stop offset="100%" stop-color="#1a1d29"/>
    </linearGradient>
    <linearGradient id="cyan" x1="0%" y1="0%" x2="100%" y2="0%">
      <stop offset="0%" stop-color="#00d4ff"/>
      <stop offset="100%" stop-color="#7c3aed"/>
    </linearGradient>
  </defs>

  <!-- Background -->
  <rect width="800" height="450" fill="url(#bg)"/>

  <!-- Subtle grid -->
  <g opacity="0.06" stroke="#00d4ff" stroke-width="1">
    <line x1="0" y1="150" x2="800" y2="150"/>
    <line x1="0" y1="300" x2="800" y2="300"/>
    <line x1="200" y1="0" x2="200" y2="450"/>
    <line x1="400" y1="0" x2="400" y2="450"/>
    <line x1="600" y1="0" x2="600" y2="450"/>
  </g>

  <!-- Left panel: BEFORE -->
  <rect x="60" y="80" width="290" height="290" rx="10" fill="#0f1117" stroke="#2a2d3a" stroke-width="1.5"/>
  <rect x="60" y="80" width="290" height="36" rx="10" fill="#1a1d29"/>
  <rect x="60" y="106" width="290" height="10" fill="#1a1d29"/>
  <circle cx="82" cy="98" r="6" fill="#ef4444"/>
  <circle cx="100" cy="98" r="6" fill="#f59e0b"/>
  <circle cx="118" cy="98" r="6" fill="#22c55e"/>
  <text x="190" y="103" font-family="monospace" font-size="11" fill="#94a3b8" text-anchor="middle">before.html</text>

  <!-- Before content lines -->
  <rect x="76" y="132" width="160" height="8" rx="3" fill="#2a2d3a"/>
  <rect x="76" y="148" width="220" height="8" rx="3" fill="#2a2d3a"/>
  <rect x="76" y="164" width="190" height="8" rx="3" fill="#2a2d3a"/>
  <rect x="76" y="180" width="140" height="8" rx="3" fill="#2a2d3a"/>
  <!-- Highlighted "deleted" line -->
  <rect x="76" y="196" width="240" height="16" rx="3" fill="rgba(239,68,68,0.15)" stroke="#ef4444" stroke-width="1" stroke-dasharray="none"/>
  <rect x="76" y="200" width="200" height="8" rx="3" fill="#ef4444" opacity="0.5"/>
  <text x="80" y="206" font-family="monospace" font-size="9" fill="#ef4444">- Price: $29/month</text>
  <rect x="76" y="220" width="180" height="8" rx="3" fill="#2a2d3a"/>
  <rect x="76" y="236" width="210" height="8" rx="3" fill="#2a2d3a"/>
  <rect x="76" y="252" width="150" height="8" rx="3" fill="#2a2d3a"/>
  <rect x="76" y="268" width="195" height="8" rx="3" fill="#2a2d3a"/>
  <rect x="76" y="284" width="165" height="8" rx="3" fill="#2a2d3a"/>
  <rect x="76" y="300" width="120" height="8" rx="3" fill="#2a2d3a"/>
  <rect x="76" y="316" width="175" height="8" rx="3" fill="#2a2d3a"/>
  <rect x="76" y="332" width="145" height="8" rx="3" fill="#2a2d3a"/>

  <!-- Arrow in middle -->
  <g transform="translate(395,225)">
    <circle r="28" fill="#1a1d29" stroke="#00d4ff" stroke-width="1.5"/>
    <text y="5" font-family="monospace" font-size="18" fill="#00d4ff" text-anchor="middle">⇄</text>
  </g>

  <!-- Right panel: AFTER -->
  <rect x="450" y="80" width="290" height="290" rx="10" fill="#0f1117" stroke="#2a2d3a" stroke-width="1.5"/>
  <rect x="450" y="80" width="290" height="36" rx="10" fill="#1a1d29"/>
  <rect x="450" y="106" width="290" height="10" fill="#1a1d29"/>
  <circle cx="472" cy="98" r="6" fill="#ef4444"/>
  <circle cx="490" cy="98" r="6" fill="#f59e0b"/>
  <circle cx="508" cy="98" r="6" fill="#22c55e"/>
  <text x="580" y="103" font-family="monospace" font-size="11" fill="#94a3b8" text-anchor="middle">after.html</text>

  <!-- After content lines -->
  <rect x="466" y="132" width="160" height="8" rx="3" fill="#2a2d3a"/>
  <rect x="466" y="148" width="220" height="8" rx="3" fill="#2a2d3a"/>
  <rect x="466" y="164" width="190" height="8" rx="3" fill="#2a2d3a"/>
  <rect x="466" y="180" width="140" height="8" rx="3" fill="#2a2d3a"/>
  <!-- Highlighted "added" line -->
  <rect x="466" y="196" width="240" height="16" rx="3" fill="rgba(34,197,94,0.12)" stroke="#22c55e" stroke-width="1"/>
  <text x="470" y="206" font-family="monospace" font-size="9" fill="#22c55e">+ Price: $49/month</text>
  <rect x="466" y="220" width="180" height="8" rx="3" fill="#2a2d3a"/>
  <rect x="466" y="236" width="210" height="8" rx="3" fill="#2a2d3a"/>
  <rect x="466" y="252" width="150" height="8" rx="3" fill="#2a2d3a"/>
  <rect x="466" y="268" width="195" height="8" rx="3" fill="#2a2d3a"/>
  <rect x="466" y="284" width="165" height="8" rx="3" fill="#2a2d3a"/>
  <rect x="466" y="300" width="120" height="8" rx="3" fill="#2a2d3a"/>
  <!-- Second added line -->
  <rect x="466" y="316" width="240" height="16" rx="3" fill="rgba(34,197,94,0.12)" stroke="#22c55e" stroke-width="1"/>
  <text x="470" y="326" font-family="monospace" font-size="9" fill="#22c55e">+ Sale ends Friday!</text>
  <rect x="466" y="340" width="145" height="8" rx="3" fill="#2a2d3a"/>

  <!-- Bottom label -->
  <text x="400" y="406" font-family="Inter,sans-serif" font-size="20" font-weight="700" fill="white" text-anchor="middle">Content Change Detection</text>
  <text x="400" y="428" font-family="Inter,sans-serif" font-size="13" fill="#94a3b8" text-anchor="middle">Fingerprint · Diff · Alert</text>
</svg>
