<svg xmlns="http://www.w3.org/2000/svg" viewBox="0 0 800 450">
  <defs>
    <linearGradient id="bg" x1="0%" y1="0%" x2="100%" y2="100%">
      <stop offset="0%" stop-color="#0a0b0f"/>
      <stop offset="100%" stop-color="#1a1d29"/>
    </linearGradient>
  </defs>

  <rect width="800" height="450" fill="url(#bg)"/>
  <circle cx="150" cy="380" r="200" fill="#00d4ff" opacity="0.03"/>
  <circle cx="650" cy="80" r="180" fill="#7c3aed" opacity="0.04"/>

  <!-- Search bar at top center -->
  <g transform="translate(200,28)">
    <rect width="400" height="42" rx="21" fill="#0f1117" stroke="#2a2d3a" stroke-width="1.5"/>
    <text x="60" y="27" font-family="Inter,sans-serif" font-size="13" fill="#94a3b8">content research tools for bloggers</text>
    <circle cx="30" cy="21" r="8" fill="none" stroke="#00d4ff" stroke-width="1.5"/>
    <line x1="36" y1="27" x2="42" y2="33" stroke="#00d4ff" stroke-width="1.5" stroke-linecap="round"/>
  </g>

  <!-- Arrow down from search to PAA box -->
  <line x1="400" y1="70" x2="400" y2="105" stroke="#2a2d3a" stroke-width="1.5" stroke-dasharray="4,3"/>
  <polygon points="400,110 396,103 404,103" fill="#2a2d3a"/>

  <!-- Center PAA engine box -->
  <g transform="translate(265,112)">
    <rect width="270" height="44" rx="6" fill="rgba(0,212,255,0.08)" stroke="#00d4ff" stroke-width="1.5"/>
    <text x="135" y="19" font-family="Inter,sans-serif" font-size="10" fill="#00d4ff" text-anchor="middle" font-weight="600" letter-spacing="0.08em">PEOPLE ALSO ASK MINER</text>
    <text x="135" y="34" font-family="Inter,sans-serif" font-size="11" fill="#ffffff" text-anchor="middle">paa-server.js  ·  port 3131  ·  SerpApi</text>
  </g>

  <!-- Left connector line -->
  <line x1="265" y1="134" x2="180" y2="134" stroke="#2a2d3a" stroke-width="1" stroke-dasharray="4,3"/>
  <line x1="180" y1="134" x2="180" y2="215" stroke="#2a2d3a" stroke-width="1" stroke-dasharray="4,3"/>
  <line x1="180" y1="215" x2="245" y2="215" stroke="#2a2d3a" stroke-width="1" stroke-dasharray="4,3"/>
  <line x1="180" y1="283" x2="245" y2="283" stroke="#2a2d3a" stroke-width="1" stroke-dasharray="4,3"/>
  <line x1="180" y1="351" x2="245" y2="351" stroke="#2a2d3a" stroke-width="1" stroke-dasharray="4,3"/>

  <!-- Right connector line -->
  <line x1="535" y1="134" x2="620" y2="134" stroke="#2a2d3a" stroke-width="1" stroke-dasharray="4,3"/>
  <line x1="620" y1="134" x2="620" y2="215" stroke="#2a2d3a" stroke-width="1" stroke-dasharray="4,3"/>
  <line x1="620" y1="215" x2="555" y2="215" stroke="#2a2d3a" stroke-width="1" stroke-dasharray="4,3"/>
  <line x1="620" y1="283" x2="555" y2="283" stroke="#2a2d3a" stroke-width="1" stroke-dasharray="4,3"/>
  <line x1="620" y1="351" x2="555" y2="351" stroke="#2a2d3a" stroke-width="1" stroke-dasharray="4,3"/>

  <!-- Question cards - left column -->
  <g transform="translate(30,190)">
    <rect width="215" height="52" rx="6" fill="#0f1117" stroke="#2a2d3a" stroke-width="1"/>
    <text x="12" y="20" font-family="Inter,sans-serif" font-size="9" fill="#94a3b8">Q1</text>
    <text x="32" y="20" font-family="Inter,sans-serif" font-size="11" fill="#e2e8f0">What are the best free tools</text>
    <text x="32" y="35" font-family="Inter,sans-serif" font-size="11" fill="#e2e8f0">for content research?</text>
    <rect x="12" y="44" width="50" height="3" rx="1.5" fill="#00d4ff" opacity="0.5"/>
  </g>
  <g transform="translate(30,258)">
    <rect width="215" height="52" rx="6" fill="#0f1117" stroke="#2a2d3a" stroke-width="1"/>
    <text x="12" y="20" font-family="Inter,sans-serif" font-size="9" fill="#94a3b8">Q2</text>
    <text x="32" y="20" font-family="Inter,sans-serif" font-size="11" fill="#e2e8f0">How do bloggers find SEO</text>
    <text x="32" y="35" font-family="Inter,sans-serif" font-size="11" fill="#e2e8f0">keywords for free?</text>
    <rect x="12" y="44" width="50" height="3" rx="1.5" fill="#7c3aed" opacity="0.5"/>
  </g>
  <g transform="translate(30,326)">
    <rect width="215" height="52" rx="6" fill="#0f1117" stroke="#2a2d3a" stroke-width="1"/>
    <text x="12" y="20" font-family="Inter,sans-serif" font-size="9" fill="#94a3b8">Q3</text>
    <text x="32" y="20" font-family="Inter,sans-serif" font-size="11" fill="#e2e8f0">What is the People Also Ask</text>
    <text x="32" y="35" font-family="Inter,sans-serif" font-size="11" fill="#e2e8f0">box on Google?</text>
    <rect x="12" y="44" width="50" height="3" rx="1.5" fill="#f59e0b" opacity="0.5"/>
  </g>

  <!-- Question cards - right column -->
  <g transform="translate(555,190)">
    <rect width="215" height="52" rx="6" fill="#0f1117" stroke="#2a2d3a" stroke-width="1"/>
    <text x="12" y="20" font-family="Inter,sans-serif" font-size="9" fill="#94a3b8">Q4</text>
    <text x="32" y="20" font-family="Inter,sans-serif" font-size="11" fill="#e2e8f0">How do I use SerpApi for</text>
    <text x="32" y="35" font-family="Inter,sans-serif" font-size="11" fill="#e2e8f0">content marketing?</text>
    <rect x="12" y="44" width="50" height="3" rx="1.5" fill="#22c55e" opacity="0.5"/>
  </g>
  <g transform="translate(555,258)">
    <rect width="215" height="52" rx="6" fill="#0f1117" stroke="#2a2d3a" stroke-width="1"/>
    <text x="12" y="20" font-family="Inter,sans-serif" font-size="9" fill="#94a3b8">Q5</text>
    <text x="32" y="20" font-family="Inter,sans-serif" font-size="11" fill="#e2e8f0">Can you mine PAA questions</text>
    <text x="32" y="35" font-family="Inter,sans-serif" font-size="11" fill="#e2e8f0">automatically?</text>
    <rect x="12" y="44" width="50" height="3" rx="1.5" fill="#00d4ff" opacity="0.5"/>
  </g>
  <g transform="translate(555,326)">
    <rect width="215" height="52" rx="6" fill="#0f1117" stroke="#2a2d3a" stroke-width="1"/>
    <text x="12" y="20" font-family="Inter,sans-serif" font-size="9" fill="#94a3b8">Q6</text>
    <text x="32" y="20" font-family="Inter,sans-serif" font-size="11" fill="#e2e8f0">What questions do people ask</text>
    <text x="32" y="35" font-family="Inter,sans-serif" font-size="11" fill="#e2e8f0">about content strategy?</text>
    <rect x="12" y="44" width="50" height="3" rx="1.5" fill="#7c3aed" opacity="0.5"/>
  </g>

  <!-- Copy button -->
  <g transform="translate(310,393)">
    <rect width="180" height="32" rx="16" fill="rgba(0,212,255,0.1)" stroke="#00d4ff" stroke-width="1"/>
    <text x="90" y="21" font-family="Inter,sans-serif" font-size="11" fill="#00d4ff" text-anchor="middle" font-weight="600">⎘  Copy All Questions</text>
  </g>

  <!-- Tech badges -->
  <g transform="translate(32,395)">
    <rect width="76" height="24" rx="12" fill="rgba(0,212,255,0.1)" stroke="#00d4ff" stroke-width="1"/>
    <text x="38" y="16" font-family="Inter,sans-serif" font-size="10" fill="#00d4ff" text-anchor="middle">Node.js</text>
  </g>
  <g transform="translate(116,395)">
    <rect width="90" height="24" rx="12" fill="rgba(124,58,237,0.1)" stroke="#7c3aed" stroke-width="1"/>
    <text x="45" y="16" font-family="Inter,sans-serif" font-size="10" fill="#7c3aed" text-anchor="middle">Zero Deps</text>
  </g>
  <g transform="translate(214,395)">
    <rect width="72" height="24" rx="12" fill="rgba(34,197,94,0.1)" stroke="#22c55e" stroke-width="1"/>
    <text x="36" y="16" font-family="Inter,sans-serif" font-size="10" fill="#22c55e" text-anchor="middle">SerpApi</text>
  </g>

  <text x="400" y="435" font-family="Inter,sans-serif" font-size="12" fill="#475569" text-anchor="middle">People Also Ask Miner · josefresco.com</text>
</svg>
