<?xml version="1.0" encoding="UTF-8"?>
<svg width="800" height="450" viewBox="0 0 800 450" xmlns="http://www.w3.org/2000/svg">
  <defs>
    <linearGradient id="bg" x1="0%" y1="0%" x2="100%" y2="100%">
      <stop offset="0%" style="stop-color:#0a0b0f"/>
      <stop offset="100%" style="stop-color:#1a1d29"/>
    </linearGradient>
    <linearGradient id="cardBg" x1="0%" y1="0%" x2="100%" y2="100%">
      <stop offset="0%" style="stop-color:rgba(26,29,41,0.95)"/>
      <stop offset="100%" style="stop-color:rgba(15,17,25,0.95)"/>
    </linearGradient>
    <linearGradient id="accent" x1="0%" y1="0%" x2="100%" y2="0%">
      <stop offset="0%" style="stop-color:#00d4ff"/>
      <stop offset="100%" style="stop-color:#7c3aed"/>
    </linearGradient>
    <linearGradient id="redAccent" x1="0%" y1="0%" x2="100%" y2="0%">
      <stop offset="0%" style="stop-color:#ff4136"/>
      <stop offset="100%" style="stop-color:#ff6b35"/>
    </linearGradient>
    <filter id="glow">
      <feGaussianBlur stdDeviation="3" result="coloredBlur"/>
      <feMerge><feMergeNode in="coloredBlur"/><feMergeNode in="SourceGraphic"/></feMerge>
    </filter>
  </defs>

  <!-- Background -->
  <rect width="800" height="450" fill="url(#bg)"/>

  <!-- Subtle grid -->
  <pattern id="grid" width="40" height="40" patternUnits="userSpaceOnUse">
    <path d="M 40 0 L 0 0 0 40" fill="none" stroke="rgba(0,212,255,0.04)" stroke-width="1"/>
  </pattern>
  <rect width="800" height="450" fill="url(#grid)"/>

  <!-- Top accent bar -->
  <rect x="0" y="0" width="800" height="3" fill="url(#accent)"/>

  <!-- Ambient glow circles -->
  <circle cx="700" cy="80" r="90" fill="rgba(0,212,255,0.04)"/>
  <circle cx="120" cy="380" r="70" fill="rgba(124,58,237,0.05)"/>

  <!-- Title -->
  <text x="400" y="56" font-family="Inter, Arial, sans-serif" font-size="26" font-weight="700" fill="white" text-anchor="middle">Reddit Post Hider</text>
  <text x="400" y="80" font-family="Inter, Arial, sans-serif" font-size="14" font-weight="400" fill="#94a3b8" text-anchor="middle">Keyword Filters &amp; Subreddit Blocklists</text>

  <!-- Main panel: Reddit feed mockup -->
  <rect x="60" y="100" width="440" height="310" rx="12" fill="url(#cardBg)" stroke="rgba(255,255,255,0.07)" stroke-width="1"/>

  <!-- Panel header -->
  <rect x="60" y="100" width="440" height="36" rx="12" fill="rgba(255,255,255,0.05)"/>
  <rect x="60" y="120" width="440" height="16" fill="rgba(255,255,255,0.05)"/>
  <circle cx="82" cy="118" r="6" fill="#ff5f56"/>
  <circle cx="102" cy="118" r="6" fill="#ffbd2e"/>
  <circle cx="122" cy="118" r="6" fill="#27ca3f"/>
  <rect x="148" y="112" width="180" height="12" rx="6" fill="rgba(255,255,255,0.08)"/>
  <text x="238" y="121" font-family="Monaco, monospace" font-size="8" fill="#64748b" text-anchor="middle">reddit.com/r/programming</text>

  <!-- Post row 1: HIDDEN by keyword -->
  <rect x="80" y="148" width="400" height="42" rx="6" fill="rgba(255,65,54,0.08)" stroke="rgba(255,65,54,0.2)" stroke-width="1"/>
  <rect x="92" y="158" width="8" height="8" rx="2" fill="#ff4136" opacity="0.7"/>
  <text x="108" y="167" font-family="Inter, Arial, sans-serif" font-size="10" fill="#64748b" font-style="italic">Hidden: matched keyword "sponsored"</text>
  <rect x="92" y="170" width="180" height="6" rx="3" fill="rgba(255,65,54,0.15)"/>
  <text x="468" y="173" font-family="Inter, Arial, sans-serif" font-size="9" fill="#ff4136" font-weight="600" text-anchor="end">KEYWORD</text>

  <!-- Post row 2: HIDDEN by subreddit -->
  <rect x="80" y="198" width="400" height="42" rx="6" fill="rgba(255,107,53,0.08)" stroke="rgba(255,107,53,0.2)" stroke-width="1"/>
  <rect x="92" y="208" width="8" height="8" rx="2" fill="#ff6b35" opacity="0.7"/>
  <text x="108" y="217" font-family="Inter, Arial, sans-serif" font-size="10" fill="#64748b" font-style="italic">Hidden: r/AskReddit in blocklist</text>
  <rect x="92" y="220" width="140" height="6" rx="3" fill="rgba(255,107,53,0.15)"/>
  <text x="468" y="223" font-family="Inter, Arial, sans-serif" font-size="9" fill="#ff6b35" font-weight="600" text-anchor="end">SUBREDDIT</text>

  <!-- Post row 3: VISIBLE -->
  <rect x="80" y="248" width="400" height="42" rx="6" fill="rgba(56,161,105,0.06)" stroke="rgba(56,161,105,0.15)" stroke-width="1"/>
  <text x="92" y="263" font-family="Inter, Arial, sans-serif" font-size="10" fill="#94a3b8">Show HN: I built a self-hosted monitoring tool for…</text>
  <rect x="92" y="269" width="220" height="6" rx="3" fill="rgba(255,255,255,0.06)"/>
  <circle cx="460" cy="270" r="8" fill="rgba(56,161,105,0.2)" stroke="#38a169" stroke-width="1"/>
  <text x="460" y="274" font-family="Arial" font-size="9" font-weight="bold" fill="#38a169" text-anchor="middle">✓</text>

  <!-- Post row 4: VISIBLE -->
  <rect x="80" y="298" width="400" height="42" rx="6" fill="rgba(255,255,255,0.03)" stroke="rgba(255,255,255,0.05)" stroke-width="1"/>
  <text x="92" y="313" font-family="Inter, Arial, sans-serif" font-size="10" fill="#94a3b8">How I reduced my app's bundle size by 60%…</text>
  <rect x="92" y="319" width="190" height="6" rx="3" fill="rgba(255,255,255,0.06)"/>
  <circle cx="460" cy="320" r="8" fill="rgba(56,161,105,0.2)" stroke="#38a169" stroke-width="1"/>
  <text x="460" y="324" font-family="Arial" font-size="9" font-weight="bold" fill="#38a169" text-anchor="middle">✓</text>

  <!-- Post row 5: HIDDEN by manual click -->
  <rect x="80" y="348" width="400" height="42" rx="6" fill="rgba(100,116,139,0.08)" stroke="rgba(100,116,139,0.15)" stroke-width="1"/>
  <text x="92" y="363" font-family="Inter, Arial, sans-serif" font-size="10" fill="#475569" font-style="italic">Hidden: clicked &amp; dismissed manually</text>
  <rect x="92" y="369" width="160" height="6" rx="3" fill="rgba(100,116,139,0.12)"/>
  <text x="468" y="373" font-family="Inter, Arial, sans-serif" font-size="9" fill="#64748b" font-weight="600" text-anchor="end">MANUAL</text>

  <!-- Right panel: filter settings -->
  <rect x="530" y="100" width="210" height="310" rx="12" fill="url(#cardBg)" stroke="rgba(255,255,255,0.07)" stroke-width="1"/>
  <text x="635" y="126" font-family="Inter, Arial, sans-serif" font-size="12" font-weight="600" fill="white" text-anchor="middle">Filter Rules</text>
  <rect x="545" y="132" width="180" height="1" fill="rgba(255,255,255,0.07)"/>

  <!-- Keyword filter section -->
  <text x="547" y="152" font-family="Inter, Arial, sans-serif" font-size="10" font-weight="600" fill="#00d4ff">KEYWORDS</text>
  <rect x="547" y="158" width="178" height="22" rx="5" fill="rgba(255,65,54,0.12)" stroke="rgba(255,65,54,0.3)" stroke-width="1"/>
  <text x="557" y="173" font-family="Monaco, monospace" font-size="9" fill="#ff4136">sponsored</text>
  <rect x="547" y="184" width="178" height="22" rx="5" fill="rgba(255,65,54,0.12)" stroke="rgba(255,65,54,0.3)" stroke-width="1"/>
  <text x="557" y="199" font-family="Monaco, monospace" font-size="9" fill="#ff4136">promoted</text>
  <rect x="547" y="210" width="178" height="22" rx="5" fill="rgba(255,65,54,0.12)" stroke="rgba(255,65,54,0.3)" stroke-width="1"/>
  <text x="557" y="225" font-family="Monaco, monospace" font-size="9" fill="#ff4136">clickbait</text>

  <!-- Subreddit filter section -->
  <text x="547" y="252" font-family="Inter, Arial, sans-serif" font-size="10" font-weight="600" fill="#7c3aed">SUBREDDITS</text>
  <rect x="547" y="258" width="178" height="22" rx="5" fill="rgba(124,58,237,0.12)" stroke="rgba(124,58,237,0.3)" stroke-width="1"/>
  <text x="557" y="273" font-family="Monaco, monospace" font-size="9" fill="#a78bfa">r/AskReddit</text>
  <rect x="547" y="284" width="178" height="22" rx="5" fill="rgba(124,58,237,0.12)" stroke="rgba(124,58,237,0.3)" stroke-width="1"/>
  <text x="557" y="299" font-family="Monaco, monospace" font-size="9" fill="#a78bfa">r/mildlyinfuriating</text>

  <!-- Stats row -->
  <rect x="547" y="318" width="178" height="60" rx="8" fill="rgba(0,212,255,0.05)" stroke="rgba(0,212,255,0.12)" stroke-width="1"/>
  <text x="636" y="337" font-family="Inter, Arial, sans-serif" font-size="10" fill="#64748b" text-anchor="middle">Hidden this session</text>
  <text x="636" y="360" font-family="Inter, Arial, sans-serif" font-size="28" font-weight="700" fill="#00d4ff" text-anchor="middle" filter="url(#glow)">247</text>
  <text x="636" y="374" font-family="Inter, Arial, sans-serif" font-size="9" fill="#475569" text-anchor="middle">posts filtered</text>

  <!-- Bottom badge -->
  <rect x="280" y="424" width="240" height="20" rx="10" fill="rgba(255,255,255,0.05)"/>
  <text x="400" y="437" font-family="Inter, Arial, sans-serif" font-size="11" fill="#64748b" text-anchor="middle">Browser Extension · Chrome Manifest V3</text>
</svg>
