<svg xmlns="http://www.w3.org/2000/svg" viewBox="0 0 800 600">
  <!-- Background gradient -->
  <defs>
    <linearGradient id="bgGradient" x1="0%" y1="0%" x2="100%" y2="100%">
      <stop offset="0%" style="stop-color:#0a0b0f;stop-opacity:1" />
      <stop offset="100%" style="stop-color:#1a1d29;stop-opacity:1" />
    </linearGradient>
    <linearGradient id="redditGradient" x1="0%" y1="0%" x2="100%" y2="100%">
      <stop offset="0%" style="stop-color:#FF4500;stop-opacity:1" />
      <stop offset="100%" style="stop-color:#FF6E00;stop-opacity:1" />
    </linearGradient>
    <linearGradient id="accentGradient" x1="0%" y1="0%" x2="100%" y2="100%">
      <stop offset="0%" style="stop-color:#00d4ff;stop-opacity:1" />
      <stop offset="100%" style="stop-color:#7c3aed;stop-opacity:1" />
    </linearGradient>
    <linearGradient id="cardGradient" x1="0%" y1="0%" x2="100%" y2="100%">
      <stop offset="0%" style="stop-color:rgba(26,29,41,0.9);stop-opacity:1" />
      <stop offset="100%" style="stop-color:rgba(42,45,58,0.9);stop-opacity:1" />
    </linearGradient>
    <filter id="glow">
      <feGaussianBlur stdDeviation="3" result="coloredBlur"/>
      <feMerge>
        <feMergeNode in="coloredBlur"/>
        <feMergeNode in="SourceGraphic"/>
      </feMerge>
    </filter>
    <filter id="shadow">
      <feDropShadow dx="0" dy="4" stdDeviation="8" flood-opacity="0.3"/>
    </filter>
  </defs>
  
  <!-- Background -->
  <rect width="800" height="600" fill="url(#bgGradient)"/>
  
  <!-- Neural network background pattern -->
  <g opacity="0.15">
    <circle cx="100" cy="100" r="2" fill="#00d4ff"/>
    <circle cx="300" cy="150" r="2" fill="#7c3aed"/>
    <circle cx="500" cy="100" r="2" fill="#FF4500"/>
    <circle cx="700" cy="150" r="2" fill="#f59e0b"/>
    <circle cx="200" cy="300" r="2" fill="#7c3aed"/>
    <circle cx="400" cy="350" r="2" fill="#00d4ff"/>
    <circle cx="600" cy="300" r="2" fill="#FF4500"/>
    <circle cx="150" cy="500" r="2" fill="#00d4ff"/>
    <circle cx="350" cy="550" r="2" fill="#7c3aed"/>
    <circle cx="550" cy="500" r="2" fill="#FF4500"/>
    <circle cx="750" cy="550" r="2" fill="#f59e0b"/>
  </g>
  
  <!-- Main title -->
  <text x="400" y="70" font-family="Inter, Arial, sans-serif" font-size="42" font-weight="700" fill="white" text-anchor="middle">SafeShare</text>
  <text x="400" y="100" font-family="Inter, Arial, sans-serif" font-size="18" fill="#94a3b8" text-anchor="middle">Clean Reddit Post Sharing</text>
  
  <!-- Bookmarklet Badge -->
  <g transform="translate(320, 120)">
    <rect x="0" y="0" width="160" height="32" rx="16" fill="url(#redditGradient)" filter="url(#glow)"/>
    <text x="80" y="21" font-family="Inter, Arial, sans-serif" font-size="12" font-weight="600" fill="white" text-anchor="middle">⚡ One-Click Bookmarklet</text>
  </g>
  
  <!-- App Interface Mockup -->
  <g transform="translate(100, 170)">
    <!-- Main app container -->
    <rect x="0" y="0" width="600" height="380" rx="12" fill="url(#cardGradient)" stroke="rgba(255,69,0,0.3)" stroke-width="1" filter="url(#shadow)"/>
    
    <!-- App header -->
    <rect x="0" y="0" width="600" height="60" rx="12" fill="rgba(255,69,0,0.1)"/>
    <rect x="0" y="48" width="600" height="12" fill="url(#cardGradient)"/>
    
    <!-- Logo -->
    <circle cx="40" cy="30" r="18" fill="url(#redditGradient)"/>
    <path d="M32 30 L48 30 M40 22 L40 38" stroke="white" stroke-width="3" stroke-linecap="round"/>
    <text x="70" y="35" font-family="Inter, Arial, sans-serif" font-size="18" font-weight="600" fill="white">SafeShare</text>
    
    <!-- Share icon -->
    <g transform="translate(520, 15)">
      <circle cx="20" cy="20" r="20" fill="rgba(255,69,0,0.2)"/>
      <path d="M14 24 L26 16 M20 16 L20 28" stroke="#FF4500" stroke-width="2.5" stroke-linecap="round" stroke-linejoin="round"/>
    </g>
    
    <!-- URL Input -->
    <rect x="30" y="90" width="540" height="50" rx="8" fill="rgba(255,255,255,0.05)" stroke="rgba(255,69,0,0.3)"/>
    <text x="50" y="120" font-family="Inter, Arial, sans-serif" font-size="13" fill="#64748b">https://www.reddit.com/r/technology/comments/abc123/...</text>
    <circle cx="550" cy="115" r="15" fill="url(#redditGradient)"/>
    <path d="M544 115 L556 115 M550 109 L550 121" stroke="white" stroke-width="2" stroke-linecap="round"/>
    
    <!-- Generated Link Card -->
    <rect x="30" y="160" width="540" height="180" rx="8" fill="rgba(255,69,0,0.05)" stroke="rgba(255,69,0,0.2)"/>
    
    <!-- Post thumbnail placeholder -->
    <rect x="50" y="180" width="120" height="80" rx="6" fill="rgba(255,69,0,0.1)"/>
    <text x="110" y="225" font-family="Inter, Arial, sans-serif" font-size="24" fill="#FF4500" text-anchor="middle">📰</text>
    
    <!-- Post title -->
    <text x="190" y="200" font-family="Inter, Arial, sans-serif" font-size="14" font-weight="600" fill="#ffffff">New AI Breakthrough Announced</text>
    <text x="190" y="220" font-family="Inter, Arial, sans-serif" font-size="11" fill="#94a3b8">Posted by u/tech_enthusiast • r/technology</text>
    
    <!-- Stats -->
    <g transform="translate(190, 240)">
      <text x="0" y="0" font-family="Inter, Arial, sans-serif" font-size="11" fill="#FF4500">⬆ 12.5k</text>
      <text x="70" y="0" font-family="Inter, Arial, sans-serif" font-size="11" fill="#94a3b8">💬 847 comments</text>
    </g>
    
    <!-- Share link -->
    <rect x="50" y="270" width="500" height="35" rx="6" fill="rgba(0,212,255,0.1)" stroke="rgba(0,212,255,0.3)"/>
    <text x="65" y="292" font-family="Monaco, monospace" font-size="11" fill="#67e8f9">safeshare.vercel.app/view/abc123</text>
    <rect x="470" y="275" width="70" height="25" rx="4" fill="url(#accentGradient)"/>
    <text x="505" y="292" font-family="Inter, Arial, sans-serif" font-size="10" font-weight="600" fill="white" text-anchor="middle">Copy</text>
    
    <!-- Features row -->
    <g transform="translate(50, 330)">
      <rect x="0" y="0" width="110" height="28" rx="14" fill="rgba(34,197,94,0.1)" stroke="rgba(34,197,94,0.3)"/>
      <text x="55" y="18" font-family="Inter, Arial, sans-serif" font-size="10" fill="#4ade80" text-anchor="middle">✓ No Login</text>
    </g>
    <g transform="translate(170, 330)">
      <rect x="0" y="0" width="110" height="28" rx="14" fill="rgba(34,197,94,0.1)" stroke="rgba(34,197,94,0.3)"/>
      <text x="55" y="18" font-family="Inter, Arial, sans-serif" font-size="10" fill="#4ade80" text-anchor="middle">✓ No Ads</text>
    </g>
    <g transform="translate(290, 330)">
      <rect x="0" y="0" width="130" height="28" rx="14" fill="rgba(34,197,94,0.1)" stroke="rgba(34,197,94,0.3)"/>
      <text x="65" y="18" font-family="Inter, Arial, sans-serif" font-size="10" fill="#4ade80" text-anchor="middle">✓ Clean Reader View</text>
    </g>
    <g transform="translate(430, 330)">
      <rect x="0" y="0" width="120" height="28" rx="14" fill="rgba(34,197,94,0.1)" stroke="rgba(34,197,94,0.3)"/>
      <text x="60" y="18" font-family="Inter, Arial, sans-serif" font-size="10" fill="#4ade80" text-anchor="middle">✓ 90 Day Expiry</text>
    </g>
  </g>
  
  <!-- Feature badges at bottom -->
  <g transform="translate(100, 570)">
    <rect x="0" y="0" width="140" height="24" rx="12" fill="rgba(255,69,0,0.1)" stroke="rgba(255,69,0,0.3)"/>
    <text x="70" y="16" font-family="Inter, Arial, sans-serif" font-size="11" fill="#fb923c" text-anchor="middle">🔗 Share Links</text>
  </g>
  <g transform="translate(250, 570)">
    <rect x="0" y="0" width="140" height="24" rx="12" fill="rgba(0,212,255,0.1)" stroke="rgba(0,212,255,0.3)"/>
    <text x="70" y="16" font-family="Inter, Arial, sans-serif" font-size="11" fill="#67e8f9" text-anchor="middle">📱 Bookmarklet</text>
  </g>
  <g transform="translate(400, 570)">
    <rect x="0" y="0" width="140" height="24" rx="12" fill="rgba(124,58,237,0.1)" stroke="rgba(124,58,237,0.3)"/>
    <text x="70" y="16" font-family="Inter, Arial, sans-serif" font-size="11" fill="#a78bfa" text-anchor="middle">⚡ Next.js 16</text>
  </g>
  <g transform="translate(550, 570)">
    <rect x="0" y="0" width="140" height="24" rx="12" fill="rgba(34,197,94,0.1)" stroke="rgba(34,197,94,0.3)"/>
    <text x="70" y="16" font-family="Inter, Arial, sans-serif" font-size="11" fill="#4ade80" text-anchor="middle">🔒 Vercel + Redis</text>
  </g>
  
  <!-- Decorative elements -->
  <circle cx="50" cy="550" r="3" fill="#FF4500" opacity="0.5"/>
  <circle cx="750" cy="50" r="3" fill="#7c3aed" opacity="0.5"/>
  <circle cx="700" cy="550" r="2" fill="#00d4ff" opacity="0.5"/>
</svg>
