<?xml version="1.0" encoding="UTF-8"?>
<svg width="800" height="450" viewBox="0 0 800 450" xmlns="http://www.w3.org/2000/svg">
  <defs>
    <!-- Background gradient -->
    <linearGradient id="bgGradient" x1="0%" y1="0%" x2="100%" y2="100%">
      <stop offset="0%" style="stop-color:#4F46E5;stop-opacity:1" />
      <stop offset="50%" style="stop-color:#06B6D4;stop-opacity:1" />
      <stop offset="100%" style="stop-color:#10B981;stop-opacity:1" />
    </linearGradient>

    <!-- Card gradient -->
    <linearGradient id="cardGradient" x1="0%" y1="0%" x2="100%" y2="100%">
      <stop offset="0%" style="stop-color:rgba(255,255,255,0.9);stop-opacity:1" />
      <stop offset="100%" style="stop-color:rgba(255,255,255,0.7);stop-opacity:1" />
    </linearGradient>

    <!-- Browser window gradient -->
    <linearGradient id="browserGradient" x1="0%" y1="0%" x2="0%" y2="100%">
      <stop offset="0%" style="stop-color:#2D3748;stop-opacity:1" />
      <stop offset="100%" style="stop-color:#1A202C;stop-opacity:1" />
    </linearGradient>

    <!-- Accent gradient -->
    <linearGradient id="accentGradient" x1="0%" y1="0%" x2="100%" y2="0%">
      <stop offset="0%" style="stop-color:#10B981;stop-opacity:0.8" />
      <stop offset="100%" style="stop-color:#06B6D4;stop-opacity:0.4" />
    </linearGradient>

    <!-- WordPress icon gradient -->
    <linearGradient id="wpGradient" x1="0%" y1="0%" x2="100%" y2="100%">
      <stop offset="0%" style="stop-color:#21759B;stop-opacity:1" />
      <stop offset="100%" style="stop-color:#0073AA;stop-opacity:1" />
    </linearGradient>
  </defs>

  <!-- Background -->
  <rect width="800" height="450" fill="url(#bgGradient)"/>

  <!-- Geometric shapes for visual interest -->
  <circle cx="650" cy="80" r="60" fill="rgba(255,255,255,0.1)"/>
  <polygon points="50,350 120,300 190,350 190,400 50,400" fill="rgba(255,255,255,0.05)"/>
  <rect x="700" y="300" width="80" height="80" rx="8" fill="rgba(255,255,255,0.08)"/>

  <!-- Main content card -->
  <rect x="100" y="80" width="600" height="290" rx="16" fill="url(#cardGradient)" filter="drop-shadow(0 10px 25px rgba(0,0,0,0.15))"/>

  <!-- Browser window mockup -->
  <rect x="140" y="120" width="520" height="200" rx="8" fill="url(#browserGradient)"/>

  <!-- Browser controls -->
  <circle cx="160" cy="140" r="6" fill="#FF5F56"/>
  <circle cx="180" cy="140" r="6" fill="#FFBD2E"/>
  <circle cx="200" cy="140" r="6" fill="#27CA3F"/>

  <!-- URL bar -->
  <rect x="230" y="130" width="200" height="20" rx="10" fill="rgba(255,255,255,0.1)"/>
  <text x="240" y="143" font-family="Monaco, monospace" font-size="10" fill="#9CA3AF">example.com/interesting-article</text>

  <!-- Extension popup -->
  <rect x="520" y="160" width="120" height="140" rx="8" fill="rgba(255,255,255,0.95)" filter="drop-shadow(0 4px 12px rgba(0,0,0,0.2))"/>

  <!-- Extension popup header -->
  <rect x="520" y="160" width="120" height="30" rx="8" fill="url(#wpGradient)"/>
  <text x="580" y="179" font-family="Arial" font-size="12" font-weight="bold" fill="white" text-anchor="middle">Save to Blog</text>

  <!-- Extension popup content -->
  <text x="530" y="210" font-family="Arial" font-size="9" fill="#374151">Page Title</text>
  <rect x="530" y="215" width="100" height="15" rx="3" fill="#E5E7EB"/>

  <text x="530" y="245" font-family="Arial" font-size="9" fill="#374151">URL</text>
  <rect x="530" y="250" width="100" height="15" rx="3" fill="#E5E7EB"/>

  <!-- Save button -->
  <rect x="540" y="275" width="80" height="18" rx="4" fill="url(#wpGradient)"/>
  <text x="580" y="288" font-family="Arial" font-size="11" font-weight="bold" fill="white" text-anchor="middle">Save</text>

  <!-- WordPress logo icon -->
  <circle cx="180" cy="240" r="35" fill="url(#wpGradient)"/>
  <text x="180" y="253" font-family="Arial" font-size="36" font-weight="bold" fill="white" text-anchor="middle">W</text>

  <!-- Arrow showing flow -->
  <g opacity="0.8">
    <!-- Arrow line -->
    <path d="M 250 240 Q 350 220 460 220" stroke="#10B981" stroke-width="3" fill="none" stroke-dasharray="5,5">
      <animate attributeName="stroke-dashoffset" from="0" to="-10" dur="1s" repeatCount="indefinite"/>
    </path>
    <!-- Arrow head -->
    <polygon points="460,220 450,215 450,225" fill="#10B981"/>
  </g>

  <!-- Click indicator -->
  <circle cx="580" cy="284" r="20" fill="none" stroke="#10B981" stroke-width="2" opacity="0.6">
    <animate attributeName="r" from="10" to="25" dur="1.5s" repeatCount="indefinite"/>
    <animate attributeName="opacity" from="0.8" to="0" dur="1.5s" repeatCount="indefinite"/>
  </circle>

  <!-- Success checkmark -->
  <g opacity="0.9">
    <circle cx="340" cy="240" r="12" fill="#10B981"/>
    <path d="M 335 240 L 339 244 L 345 235" stroke="white" stroke-width="2" fill="none" stroke-linecap="round"/>
  </g>

  <!-- Title -->
  <text x="400" y="50" font-family="Inter, Arial, sans-serif" font-size="32" font-weight="700" fill="white" text-anchor="middle">Save to My Blog</text>

  <!-- Category badge -->
  <rect x="320" y="390" width="160" height="30" rx="15" fill="rgba(255,255,255,0.2)"/>
  <text x="400" y="410" font-family="Inter, Arial, sans-serif" font-size="14" font-weight="500" fill="white" text-anchor="middle">Browser Extension</text>

  <!-- Accent line -->
  <rect x="0" y="0" width="800" height="4" fill="url(#accentGradient)"/>

</svg>
